<svg width="160" height="29" viewBox="0 0 160 29" fill="none" xmlns="http://www.w3.org/2000/svg">
<path d="M12.041 18.229C12.041 16.2359 12.4321 14.4952 13.2141 13.0067C14.0215 11.493 15.1315 10.3325 16.5443 9.52514C17.9823 8.6926 19.6222 8.27632 21.4639 8.27632C23.3308 8.27632 24.9706 8.65475 26.3834 9.41161C27.8215 10.1685 28.9441 11.2407 29.7515 12.6282C30.584 14.0158 31.0129 15.6431 31.0381 17.51C31.0381 17.6895 31.0333 17.8707 31.0237 18.0535C30.9933 18.6341 30.4927 19.0615 29.9114 19.0615H16.5443C16.4189 19.0615 16.3173 19.1632 16.3173 19.2886V19.2886C16.4182 20.9789 16.948 22.316 17.9067 23.2999C18.8653 24.2838 20.1394 24.7758 21.7288 24.7758C22.9902 24.7758 24.0498 24.4857 24.9076 23.9054C25.6473 23.3832 26.1713 22.6828 26.4795 21.8041C26.5678 21.5523 26.7972 21.3699 27.064 21.3699H29.9992C30.3631 21.3699 30.6398 21.6999 30.5472 22.0518C30.1096 23.7139 29.2011 25.1012 27.8215 26.2138C26.2825 27.4752 24.3525 28.106 22.0315 28.106C20.0132 28.106 18.2472 27.7023 16.7335 26.895C15.245 26.0624 14.0845 24.9019 13.252 23.4134C12.4447 21.925 12.041 20.1968 12.041 18.229ZM26.2137 16.0719C26.5651 16.0719 26.8398 15.7629 26.7611 15.4204C26.5079 14.3173 25.9784 13.437 25.1725 12.7796C24.239 11.9723 23.0533 11.5686 21.6152 11.5686C20.2781 11.5686 19.1176 11.9849 18.1337 12.8175C17.3312 13.4933 16.8115 14.3635 16.5747 15.4282C16.4992 15.7681 16.7731 16.0719 17.1213 16.0719H26.2137Z" fill="#D7F3F6"/>
<path d="M52.0905 24.3217C52.5294 24.3217 52.8852 24.6775 52.8852 25.1164V26.7106C52.8852 27.3559 52.3622 27.8789 51.717 27.8789H50.7282C49.4668 27.8789 48.5585 27.614 48.0035 27.0842C47.6417 26.7388 47.3978 26.2915 47.2718 25.7424C47.2071 25.46 46.7766 25.3351 46.5903 25.557C45.1638 27.2563 43.2255 28.106 40.7755 28.106C38.6059 28.106 36.8651 27.6014 35.5532 26.5922C34.2413 25.5831 33.5854 24.1955 33.5854 22.4295C33.5854 20.4365 34.2918 18.9102 35.7046 17.8506C37.1174 16.7657 39.1735 16.2233 41.873 16.2233H46.1706C46.4932 16.2233 46.7547 15.9618 46.7547 15.6392V15.0502C46.7547 13.9654 46.3763 13.1202 45.6194 12.5147C44.8626 11.884 43.8156 11.5686 42.4785 11.5686C41.2927 11.5686 40.3088 11.8335 39.5267 12.3633C39.0652 12.671 38.7163 13.0443 38.4799 13.4833C38.2112 13.9824 37.7511 14.4069 37.1842 14.4069H35.449C34.756 14.4069 34.2039 13.8012 34.3967 13.1356C34.7845 11.7966 35.5611 10.7193 36.7264 9.90356C38.2401 8.81874 40.2205 8.27632 42.6677 8.27632C45.2662 8.27632 47.2719 8.88181 48.6847 10.0928C50.0975 11.3037 50.8039 13.0445 50.8039 15.3151V22.9593C50.8039 23.8676 51.2328 24.3217 52.0905 24.3217V24.3217ZM46.7547 19.8349C46.7547 19.5123 46.4932 19.2507 46.1706 19.2507H41.6838C40.4223 19.2507 39.451 19.503 38.7699 20.0076C38.0887 20.4869 37.7481 21.206 37.7481 22.1646C37.7481 22.9972 38.0635 23.6657 38.6942 24.1703C39.3501 24.6749 40.2331 24.9272 41.3432 24.9272C43.0335 24.9272 44.3454 24.473 45.2788 23.5648C46.2375 22.6566 46.7295 21.4456 46.7547 19.9319V19.8349Z" fill="#D7F3F6"/>
<path d="M55.1115 2.55719C55.1115 1.91198 55.6345 1.38893 56.2797 1.38893H58.0302C58.6754 1.38893 59.1985 1.91198 59.1985 2.55719V26.7106C59.1985 27.3559 58.6754 27.8789 58.0302 27.8789H56.2797C55.6345 27.8789 55.1115 27.3559 55.1115 26.7106V2.55719Z" fill="#D7F3F6"/>
<path d="M81.0797 0.745605C81.7861 0.745605 82.379 0.985277 82.8583 1.46462C83.3377 1.91873 83.5773 2.49899 83.5773 3.20539C83.5773 3.91179 83.3377 4.50466 82.8583 4.984C82.379 5.43811 81.7861 5.66517 81.0797 5.66517C80.3733 5.66517 79.7804 5.43811 79.3011 4.984C78.8217 4.50466 78.5821 3.91179 78.5821 3.20539C78.5821 2.49899 78.8217 1.91873 79.3011 1.46462C79.7804 0.985277 80.3733 0.745605 81.0797 0.745605ZM79.0362 9.67164C79.0362 9.02642 79.5592 8.50338 80.2044 8.50338H81.955C82.6002 8.50338 83.1232 9.02643 83.1232 9.67164V26.7106C83.1232 27.3559 82.6002 27.8789 81.955 27.8789H80.2044C79.5592 27.8789 79.0362 27.3559 79.0362 26.7106V9.67164Z" fill="#D7F3F6"/>
<path d="M103.61 20.9158C104.332 20.9158 104.888 21.5692 104.677 22.2603C104.181 23.8781 103.315 25.196 102.077 26.2138C100.513 27.4752 98.5076 28.106 96.0604 28.106C94.1431 28.106 92.4528 27.7023 90.9895 26.895C89.5262 26.0624 88.391 24.8893 87.5836 23.3756C86.8016 21.8619 86.4105 20.1211 86.4105 18.1533C86.4105 16.1855 86.8142 14.4573 87.6215 12.9688C88.4288 11.4803 89.5641 10.3325 91.0273 9.52514C92.5158 8.6926 94.2314 8.27632 96.174 8.27632C98.5959 8.27632 100.576 8.91965 102.115 10.2063C103.324 11.1972 104.175 12.4761 104.668 14.0431C104.885 14.7342 104.329 15.3908 103.604 15.3908H101.703C101.167 15.3908 100.714 15.0188 100.499 14.5275C100.187 13.8128 99.7296 13.2176 99.1257 12.7418C98.2932 12.0858 97.2714 11.7579 96.0604 11.7579C94.4206 11.7579 93.0961 12.3507 92.0869 13.5365C91.103 14.7222 90.6111 16.2612 90.6111 18.1533C90.6111 20.0707 91.103 21.6348 92.0869 22.8458C93.0961 24.0315 94.4206 24.6244 96.0604 24.6244C97.3219 24.6244 98.3688 24.2964 99.2014 23.6405C99.8025 23.1486 100.252 22.5384 100.551 21.8098C100.759 21.3031 101.218 20.9158 101.766 20.9158H103.61Z" fill="#D7F3F6"/>
<path d="M108.268 2.55719C108.268 1.91198 108.791 1.38893 109.437 1.38893H111.187C111.832 1.38893 112.355 1.91198 112.355 2.55719V16.4852C112.355 17.015 113.004 17.2712 113.366 16.8844L120.864 8.8733C121.085 8.63731 121.394 8.50338 121.717 8.50338H123.265C124.284 8.50338 124.815 9.71822 124.121 10.4659L119.338 15.6249C118.971 16.0204 118.923 16.6156 119.221 17.065L125.192 26.0648C125.707 26.8414 125.15 27.8789 124.218 27.8789H122.175C121.785 27.8789 121.421 27.6845 121.204 27.3606L116.206 19.8958C115.997 19.5846 115.554 19.5471 115.296 19.8189L112.676 22.5835C112.47 22.8005 112.355 23.0882 112.355 23.3872V26.7106C112.355 27.3559 111.832 27.8789 111.187 27.8789H109.437C108.791 27.8789 108.268 27.3559 108.268 26.7106V2.55719Z" fill="#D7F3F6"/>
<path d="M126.655 18.229C126.655 16.2359 127.047 14.4952 127.829 13.0067C128.636 11.493 129.746 10.3325 131.159 9.52514C132.597 8.6926 134.237 8.27632 136.078 8.27632C137.945 8.27632 139.585 8.65475 140.998 9.41161C142.436 10.1685 143.559 11.2407 144.366 12.6282C145.198 14.0158 145.627 15.6431 145.653 17.51C145.653 17.6895 145.648 17.8707 145.638 18.0535C145.608 18.6341 145.107 19.0615 144.526 19.0615H131.159C131.033 19.0615 130.932 19.1632 130.932 19.2886V19.2886C131.033 20.9789 131.562 22.316 132.521 23.2999C133.48 24.2838 134.754 24.7758 136.343 24.7758C137.605 24.7758 138.664 24.4857 139.522 23.9054C140.14 23.4693 140.607 22.9089 140.924 22.2242C141.148 21.7399 141.598 21.3699 142.132 21.3699H143.915C144.643 21.3699 145.2 22.0333 144.956 22.7188C144.467 24.0885 143.627 25.2535 142.436 26.2138C140.897 27.4752 138.967 28.106 136.646 28.106C134.628 28.106 132.862 27.7023 131.348 26.895C129.859 26.0624 128.699 24.9019 127.866 23.4134C127.059 21.925 126.655 20.1968 126.655 18.229ZM140.828 16.0719C141.18 16.0719 141.454 15.7629 141.376 15.4204C141.122 14.3173 140.593 13.437 139.787 12.7796C138.853 11.9723 137.668 11.5686 136.23 11.5686C134.893 11.5686 133.732 11.9849 132.748 12.8175C131.946 13.4933 131.426 14.3635 131.189 15.4282C131.114 15.7681 131.388 16.0719 131.736 16.0719H140.828Z" fill="#D7F3F6"/>
<path d="M12.041 18.2287C12.041 16.2357 12.4321 14.4949 13.2141 13.0064C14.0215 11.4927 15.1315 10.3322 16.5443 9.52488C17.9823 8.69234 19.6222 8.27606 21.4639 8.27606C23.3308 8.27606 24.9706 8.65449 26.3834 9.41135C27.8215 10.1682 28.9441 11.2404 29.7515 12.628C30.584 14.0156 31.0129 15.6428 31.0381 17.5097C31.0381 17.6893 31.0333 17.8705 31.0237 18.0532C30.9933 18.6338 30.4927 19.0613 29.9114 19.0613H16.5443C16.4189 19.0613 16.3173 19.1629 16.3173 19.2883V19.2883C16.4182 20.9786 16.948 22.3157 17.9067 23.2997C18.8653 24.2836 20.1394 24.7755 21.7288 24.7755C22.9902 24.7755 24.0498 24.4854 24.9076 23.9051C25.6473 23.383 26.1713 22.6825 26.4795 21.8038C26.5678 21.552 26.7972 21.3697 27.064 21.3697H29.9992C30.3631 21.3697 30.6398 21.6996 30.5472 22.0515C30.1096 23.7136 29.2011 25.101 27.8215 26.2136C26.2825 27.475 24.3525 28.1057 22.0315 28.1057C20.0132 28.1057 18.2472 27.702 16.7335 26.8947C15.245 26.0622 14.0845 24.9017 13.252 23.4132C12.4447 21.9247 12.041 20.1965 12.041 18.2287ZM26.2137 16.0717C26.5651 16.0717 26.8398 15.7626 26.7611 15.4201C26.5079 14.317 25.9783 13.4368 25.1725 12.7794C24.239 11.972 23.0533 11.5684 21.6152 11.5684C20.2781 11.5684 19.1176 11.9847 18.1337 12.8172C17.3312 13.493 16.8115 14.3632 16.5747 15.428C16.4992 15.7678 16.7731 16.0717 17.1213 16.0717H26.2137Z" fill="#D7F3F6"/>
<path d="M52.0905 24.3214C52.5294 24.3214 52.8852 24.6772 52.8852 25.1161V26.7104C52.8852 27.3556 52.3622 27.8786 51.717 27.8786H50.7282C49.4668 27.8786 48.5585 27.6137 48.0035 27.0839C47.6417 26.7385 47.3978 26.2913 47.2718 25.7422C47.2071 25.4597 46.7766 25.3348 46.5903 25.5567C45.1638 27.256 43.2255 28.1057 40.7755 28.1057C38.6059 28.1057 36.8651 27.6011 35.5532 26.592C34.2413 25.5828 33.5854 24.1953 33.5854 22.4293C33.5854 20.4362 34.2918 18.9099 35.7046 17.8503C37.1174 16.7655 39.1735 16.2231 41.873 16.2231H46.1706C46.4932 16.2231 46.7547 15.9615 46.7547 15.6389V15.0499C46.7547 13.9651 46.3763 13.1199 45.6194 12.5145C44.8626 11.8837 43.8156 11.5684 42.4785 11.5684C41.2927 11.5684 40.3088 11.8333 39.5267 12.3631C39.0652 12.6707 38.7163 13.0441 38.4799 13.483C38.2112 13.9822 37.7511 14.4066 37.1842 14.4066H35.449C34.756 14.4066 34.2039 13.8009 34.3967 13.1353C34.7845 11.7964 35.5611 10.719 36.7264 9.9033C38.2401 8.81848 40.2205 8.27606 42.6677 8.27606C45.2662 8.27606 47.2719 8.88155 48.6847 10.0925C50.0975 11.3035 50.8039 13.0443 50.8039 15.3148V22.9591C50.8039 23.8673 51.2328 24.3214 52.0905 24.3214V24.3214ZM46.7547 19.8346C46.7547 19.512 46.4932 19.2505 46.1706 19.2505H41.6838C40.4223 19.2505 39.451 19.5028 38.7699 20.0073C38.0887 20.4867 37.7481 21.2057 37.7481 22.1644C37.7481 22.9969 38.0635 23.6655 38.6942 24.17C39.3501 24.6746 40.2331 24.9269 41.3432 24.9269C43.0335 24.9269 44.3454 24.4728 45.2788 23.5646C46.2375 22.6563 46.7295 21.4454 46.7547 19.9316V19.8346Z" fill="#D7F3F6"/>
<path d="M55.1115 2.55693C55.1115 1.91172 55.6345 1.38867 56.2797 1.38867H58.0302C58.6754 1.38867 59.1985 1.91172 59.1985 2.55693V26.7104C59.1985 27.3556 58.6754 27.8786 58.0302 27.8786H56.2797C55.6345 27.8786 55.1115 27.3556 55.1115 26.7104V2.55693Z" fill="#D7F3F6"/>
<rect y="12.9727" width="4.08382" height="15.1332" rx="1.16826" fill="#D7F3F6"/>
<rect x="4.08392" y="8.31372" width="6.67062" height="4.6587" rx="1.16826" fill="#D7F3F6"/>
<path d="M4.08259 14.7062L2.02119 13.4815L1.93933 12.9744C2.65361 12.9744 3.19397 13.0331 3.65978 12.6406C4.12559 12.2481 4.08445 11.6167 4.08445 11.3506L6.27887 12.9724C5.5646 12.9724 5.02424 12.9137 4.55843 13.3062C4.09261 13.6987 4.08259 14.4401 4.08259 14.7062Z" fill="#D7F3F6"/>
<path fill-rule="evenodd" clip-rule="evenodd" d="M67.0903 3.84221C67.0903 3.24507 67.5744 2.76099 68.1715 2.76099H70.6678C71.2649 2.76099 71.749 3.24507 71.749 3.84221V7.26916C71.749 7.8663 71.2649 8.35038 70.6678 8.35038H69.252C69.119 8.35311 68.9943 8.35179 68.877 8.35038H68.5248C68.1857 8.36007 67.9202 8.41528 67.7018 8.66029C67.4291 8.96637 67.3887 9.45 67.3844 9.80146V9.97378L67.3845 9.98638C67.3849 10.0393 67.3852 10.0857 67.3844 10.124V11.477C67.3939 11.7858 67.4564 12.2189 67.8084 12.5155C68.1052 12.7656 68.4322 12.8325 68.8152 12.8481H70.3868C70.9839 12.8481 71.468 13.3322 71.468 13.9293V23.2066C71.4712 23.2253 71.4736 23.2442 71.4754 23.2633C71.5108 23.6534 71.6061 23.9946 71.7989 24.2034C72.0907 24.4952 72.5891 24.641 73.2942 24.641H75.1223C75.4562 24.641 75.7269 24.9117 75.7269 25.2456V27.5012C75.7269 27.8351 75.4562 28.1058 75.1223 28.1058H72.4919C70.7169 28.1058 69.4161 27.6924 68.5895 26.8658C67.8083 26.061 67.4074 24.8298 67.3868 23.1723H67.3842V14.4569C67.3755 14.1305 67.3158 13.5232 66.9098 13.181C66.61 12.9284 66.2793 12.8627 65.8912 12.848H63.1297C62.5325 12.848 62.0485 12.3639 62.0485 11.7668V9.43258C62.0485 8.83543 62.5325 8.35135 63.1297 8.35135C63.1297 8.35135 66.1406 8.39834 66.299 8.35135C66.4573 8.30437 66.6266 8.19853 66.758 8.06054C67.0252 7.77993 67.0814 7.39916 67.0903 7.09159V6.85844L67.0899 6.83623C67.0891 6.79756 67.0884 6.76199 67.0884 6.73016L67.0903 6.73145V3.84221Z" fill="#D7F3F6"/>
<path fill-rule="evenodd" clip-rule="evenodd" d="M150.695 3.84221C150.695 3.24507 151.179 2.76099 151.776 2.76099H154.272C154.869 2.76099 155.353 3.24507 155.353 3.84221V7.26916C155.353 7.8663 154.869 8.35038 154.272 8.35038H152.856C152.723 8.35311 152.599 8.35179 152.481 8.35038H152.129C151.79 8.36007 151.524 8.41528 151.306 8.66029C151.033 8.96637 150.993 9.45 150.989 9.80146V9.97378L150.989 9.98638C150.989 10.0393 150.99 10.0857 150.989 10.124V11.477C150.998 11.7858 151.061 12.2189 151.413 12.5155C151.709 12.7656 152.037 12.8325 152.419 12.8481H153.991C154.588 12.8481 155.072 13.3322 155.072 13.9293V23.2066C155.075 23.2253 155.078 23.2442 155.08 23.2633C155.115 23.6534 155.21 23.9946 155.403 24.2034C155.695 24.4952 156.193 24.641 156.899 24.641H159.285C159.618 24.641 159.889 24.9117 159.889 25.2456V27.5012C159.889 27.8351 159.618 28.1058 159.285 28.1058H156.096C154.321 28.1058 153.02 27.6924 152.194 26.8658C151.413 26.061 151.012 24.8298 150.991 23.1723H150.988V14.4569C150.98 14.1305 150.92 13.5232 150.514 13.181C150.214 12.9284 149.884 12.8627 149.496 12.848H146.734C146.137 12.848 145.653 12.3639 145.653 11.7668V9.43258C145.653 8.83543 146.137 8.35135 146.734 8.35135C146.734 8.35135 149.745 8.39834 149.903 8.35135C150.062 8.30437 150.231 8.19853 150.362 8.06054C150.63 7.77993 150.686 7.39916 150.695 7.09159V6.85844L150.694 6.83623C150.693 6.79756 150.693 6.76199 150.693 6.73016L150.695 6.73145V3.84221Z" fill="#D7F3F6"/>
</svg>
