<svg width="230" height="157" viewBox="0 0 230 157" fill="none" xmlns="http://www.w3.org/2000/svg">
<path fill-rule="evenodd" clip-rule="evenodd" d="M94.2658 143.579C94.2658 150.499 99.8753 156.108 106.795 156.108L217.471 156.108C224.39 156.108 230 150.499 230 143.579L230 85.2852C230 78.3655 224.39 72.756 217.471 72.756L117.03 72.756C112.071 72.0537 107.605 70.5315 103.445 67.3029C95.6076 61.2199 93.9777 50.5367 93.6819 44.6929L93.6819 12.6954C93.6819 5.77568 88.0724 0.166185 81.1527 0.166184L-84.3406 0.166155C-91.2603 0.166154 -96.8698 5.77565 -96.8698 12.6953L-96.8698 60.7038C-96.8698 67.6235 -91.2603 73.233 -84.3406 73.233L52.5722 73.233L52.5712 73.239C53.2226 73.239 53.8665 73.2367 54.5032 73.233L65.6217 73.233C73.4123 73.4571 80.0164 74.5746 85.9896 79.2106C94.4107 85.7465 94.302 95.9858 94.2465 101.211C94.2424 101.6 94.2385 101.962 94.2385 102.292L94.2658 102.273L94.2658 143.579Z" fill="url(#paint0_linear_96_775)"/>
<defs>
<linearGradient id="paint0_linear_96_775" x1="96.4625" y1="-68.9565" x2="220.749" y2="157.595" gradientUnits="userSpaceOnUse">
<stop offset="0.210404" stop-color="#D7F3F6"/>
<stop offset="0.651734" stop-color="#D7F3F6" stop-opacity="0.223958"/>
<stop offset="1" stop-color="#D7F3F6" stop-opacity="0"/>
</linearGradient>
</defs>
</svg>
