<svg width="188" height="149" viewBox="0 0 188 149" fill="none" xmlns="http://www.w3.org/2000/svg">
<path fill-rule="evenodd" clip-rule="evenodd" d="M12.5585 72.3844C5.89879 72.3844 0.499996 66.9856 0.499996 60.3259L0.499991 -46.263C0.499991 -52.9227 5.89877 -58.3215 12.5585 -58.3215L75.5809 -58.3215C82.2407 -58.3215 87.6395 -52.9227 87.6395 -46.263L87.6395 44.4145C87.9124 51.6894 89.1372 57.8866 93.8706 63.5041C100.364 71.2108 111.964 72.2474 118.001 72.3841L291.66 72.3841C298.32 72.3841 303.719 77.7829 303.719 84.4426L303.719 136.712C303.719 143.372 298.32 148.771 291.66 148.771L99.7024 148.771C93.0427 148.771 87.6439 143.372 87.6439 136.712L87.6439 99.1655C87.3532 91.9929 86.1039 85.8694 81.422 80.313C75.9044 73.7648 67.8623 72.5726 62.094 72.3844L12.5585 72.3844Z" fill="url(#paint0_linear_96_763)"/>
<defs>
<linearGradient id="paint0_linear_96_763" x1="-102.194" y1="45.2246" x2="203.447" y2="45.2246" gradientUnits="userSpaceOnUse">
<stop stop-color="#D7F3F6" stop-opacity="0"/>
<stop offset="1" stop-color="#D7F3F6"/>
</linearGradient>
</defs>
</svg>
