<svg width="31" height="328" viewBox="0 0 31 328" fill="none" xmlns="http://www.w3.org/2000/svg">
<path fill-rule="evenodd" clip-rule="evenodd" d="M-113.084 191.857C-120.004 191.857 -125.613 197.466 -125.613 204.386L-125.613 315.062C-125.613 321.981 -120.004 327.591 -113.084 327.591L-54.7901 327.591C-47.8705 327.591 -42.261 321.981 -42.261 315.062L-42.2609 214.621C-41.5586 209.662 -40.0365 205.196 -36.8079 201.036C-30.7249 193.199 -20.0417 191.569 -14.1978 191.273L17.7997 191.273C24.7193 191.273 30.3288 185.663 30.3288 178.744L30.3288 13.2504C30.3288 6.3307 24.7193 0.721201 17.7997 0.7212L-30.2088 0.721196C-37.1285 0.721195 -42.738 6.3307 -42.738 13.2504L-42.738 150.163L-42.744 150.162C-42.744 150.814 -42.7417 151.458 -42.738 152.094L-42.738 163.213C-42.9621 171.003 -44.0796 177.607 -48.7156 183.581C-55.2515 192.002 -65.4908 191.893 -70.7164 191.837C-71.1055 191.833 -71.4667 191.83 -71.7966 191.83L-71.778 191.857L-113.084 191.857Z" fill="url(#paint0_linear_96_780)"/>
<defs>
<linearGradient id="paint0_linear_96_780" x1="104.822" y1="194.053" x2="-243.898" y2="168.827" gradientUnits="userSpaceOnUse">
<stop offset="0.223958" stop-color="#D7F3F6"/>
<stop offset="0.484375" stop-color="#D7F3F6" stop-opacity="0.223958"/>
<stop offset="1" stop-color="#D7F3F6" stop-opacity="0"/>
</linearGradient>
</defs>
</svg>
