<svg width="167" height="214" viewBox="0 0 167 214" fill="none" xmlns="http://www.w3.org/2000/svg">
<path fill-rule="evenodd" clip-rule="evenodd" d="M81.412 12.8998C81.412 6.24008 86.8108 0.841309 93.4705 0.841309L207.001 0.841309C213.661 0.841309 219.06 6.24009 219.06 12.8998V80.5503C219.06 87.21 213.661 92.6088 207.001 92.6088L110.866 92.6088C103.205 92.8963 96.6795 94.1864 90.7641 99.1709C82.6419 106.015 81.5547 118.244 81.4121 124.597L81.4121 201.127C81.4121 207.787 76.0133 213.185 69.3536 213.185H13.0272C6.36742 213.185 0.968628 207.787 0.968628 201.127L0.968628 104.672C0.968628 98.0125 6.36741 92.6137 13.0271 92.6137L53.2018 92.6137C60.7583 92.308 67.2091 90.9931 73.0624 86.061C79.9565 80.252 81.2132 71.7858 81.412 65.7116L81.412 12.8998Z" fill="url(#paint0_linear_96_768)"/>
<defs>
<linearGradient id="paint0_linear_96_768" x1="110.014" y1="0.841307" x2="41.6311" y2="204.306" gradientUnits="userSpaceOnUse">
<stop stop-color="#D7F3F6"/>
<stop offset="0.744746" stop-color="#D7F3F6" stop-opacity="0.15"/>
<stop offset="1" stop-color="#D7F3F6" stop-opacity="0"/>
</linearGradient>
</defs>
</svg>
