<svg width="447" height="615" viewBox="0 0 447 615" fill="none" xmlns="http://www.w3.org/2000/svg">
<path fill-rule="evenodd" clip-rule="evenodd" d="M233.169 47.617C233.169 21.3188 254.488 0 280.786 0L583.746 0C610.044 0 631.363 21.3189 631.363 47.6171V217.852C631.363 244.151 610.044 265.469 583.746 265.469L318.371 265.469C296.211 266.301 277.334 270.034 260.222 284.452C236.728 304.249 233.582 339.622 233.169 358.003L233.169 566.662C233.169 592.96 211.85 614.279 185.552 614.279H48.0751C21.7769 614.279 0.458008 592.96 0.458008 566.662L0.458008 313.1C0.458008 286.802 21.7769 265.483 48.0751 265.483H151.57C173.426 264.598 192.084 260.793 209.014 246.528C228.963 229.719 232.595 205.219 233.169 187.646L233.169 47.617Z" fill="url(#paint0_linear_4_239)"/>
<defs>
<linearGradient id="paint0_linear_4_239" x1="315.91" y1="-6.05512e-06" x2="118.088" y2="588.591" gradientUnits="userSpaceOnUse">
<stop stop-color="#D7F3F6"/>
<stop offset="0.744746" stop-color="#D7F3F6" stop-opacity="0.15"/>
<stop offset="1" stop-color="#D7F3F6" stop-opacity="0"/>
</linearGradient>
</defs>
</svg>
