<svg width="882" height="452" viewBox="0 0 882 452" fill="none" xmlns="http://www.w3.org/2000/svg">
<path fill-rule="evenodd" clip-rule="evenodd" d="M488.369 402.223C488.369 429.547 510.52 451.698 537.844 451.698L831.551 451.698C858.876 451.698 881.027 429.547 881.027 402.223L881.027 260.048C881.027 232.723 858.876 210.572 831.551 210.572L554.227 210.572C539.878 208.541 526.958 204.138 514.923 194.797C492.251 177.201 487.536 146.298 486.68 129.392L486.68 50.0577C486.68 22.733 464.529 0.581971 437.204 0.581966L-15.0818 0.581857C-42.4064 0.581852 -64.5575 22.7329 -64.5575 50.0575L-64.5576 162.477C-64.5576 189.802 -42.4066 211.953 -15.0819 211.953L367.755 211.953L367.752 211.969C369.551 211.969 371.331 211.963 373.091 211.953L405.555 211.953C428.07 212.605 447.16 215.843 464.427 229.244C488.788 248.152 488.473 277.772 488.313 292.889C488.301 294.015 488.29 295.06 488.29 296.014L488.369 295.96L488.369 402.223Z" fill="url(#paint0_linear_4_229)"/>
<defs>
<linearGradient id="paint0_linear_4_229" x1="494.723" y1="-199.38" x2="854.265" y2="456" gradientUnits="userSpaceOnUse">
<stop offset="0.210404" stop-color="#D7F3F6"/>
<stop offset="0.651734" stop-color="#D7F3F6" stop-opacity="0.223958"/>
<stop offset="1" stop-color="#D7F3F6" stop-opacity="0"/>
</linearGradient>
</defs>
</svg>
