<svg width="878" height="392" viewBox="0 0 878 392" fill="none" xmlns="http://www.w3.org/2000/svg">
<path fill-rule="evenodd" clip-rule="evenodd" d="M48.4511 170.413C22.1529 170.413 0.834004 149.094 0.834003 122.796L0.833991 -160.083C0.83399 -186.381 22.1529 -207.7 48.4511 -207.7L205.298 -207.7C231.596 -207.7 252.915 -186.381 252.915 -160.083L252.915 89.5038C253.705 110.547 257.249 128.474 270.941 144.723C289.739 167.033 323.329 170.021 340.783 170.413L830.383 170.413C856.681 170.412 878 191.731 878 218.03L878 343.77C878 370.068 856.681 391.387 830.383 391.387L300.545 391.387C274.247 391.387 252.928 370.068 252.928 343.77L252.928 247.887C252.087 227.137 248.473 209.423 234.929 193.349C218.968 174.407 195.706 170.957 179.019 170.413L48.4511 170.413Z" fill="url(#paint0_linear_4_234)"/>
<defs>
<linearGradient id="paint0_linear_4_234" x1="-296.244" y1="91.8438" x2="587.929" y2="91.8438" gradientUnits="userSpaceOnUse">
<stop stop-color="#D7F3F6" stop-opacity="0"/>
<stop offset="1" stop-color="#D7F3F6"/>
</linearGradient>
</defs>
</svg>
